<svg xmlns="http://www.w3.org/2000/svg" viewBox="0 0 418.89 353.5"><defs><style>.cls-1,.cls-10{fill:#fff;}.cls-2{fill:#ebf5ff;}.cls-3{fill:#d7e9f7;}.cls-4{fill:#525d65;}.cls-5{fill:#cad6dd;}.cls-6{fill:#384457;}.cls-7{fill:#fdb827;}.cls-8{fill:#df4d68;}.cls-9{fill:#ec838e;}.cls-10{opacity:0.4;}.cls-11{fill:#ec9b5e;}.cls-12{fill:#ffc94e;}.cls-13{fill:#fdd2b9;}.cls-14{fill:#00b37f;}.cls-15{fill:#1d65ae;}.cls-16{fill:#7c8b96;}.cls-17{fill:#d8e2e7;}.cls-18{fill:#a6b3bd;}</style></defs><title>design</title><g id="BACKGROUND"><rect class="cls-1" width="418.89" height="353.5"/></g><g id="OBJECTS"><path class="cls-2" d="M64.81,113.17l.63,100.11c0,7.55.31,15.76,5.1,21.6,5.41,6.62,14.8,8.06,23.3,9a1313.87,1313.87,0,0,0,241.1,3.22c7-.55,14.58-1.41,19.63-6.27,5.61-5.39,6.37-14,6.67-21.73a833.24,833.24,0,0,0-4.18-121.53c-.87-8.11-2.31-17-8.64-22.19-4.9-4-11.6-4.7-17.9-5.22q-63.82-5.25-127.93-5.29-32,0-64,1.27-16.12.65-32.25,1.63c-8.09.49-17.09.09-25,2.18C64.56,74.32,64.73,99.58,64.81,113.17Z"/><rect class="cls-3" x="94.36" y="97.06" width="89.6" height="54.87"/><rect class="cls-3" x="195.54" y="176.6" width="57.39" height="54.87"/><rect class="cls-3" x="258.97" y="176.6" width="81.55" height="54.87"/><rect class="cls-3" x="196.04" y="97.06" width="38.76" height="70.47"/><rect class="cls-3" x="248.9" y="96.56" width="38.76" height="26.68"/><rect class="cls-3" x="143.19" y="207.81" width="38.76" height="26.68"/><rect class="cls-3" x="94.86" y="207.81" width="38.76" height="26.68"/><rect class="cls-3" x="295.72" y="96.56" width="38.76" height="26.68"/><rect class="cls-3" x="249.4" y="129.78" width="88.6" height="3.52"/><rect class="cls-3" x="249.4" y="136.33" width="88.6" height="3.52"/><rect class="cls-3" x="249.4" y="142.87" width="88.6" height="3.52"/><rect class="cls-3" x="249.4" y="149.41" width="88.6" height="3.52"/><rect class="cls-3" x="249.4" y="155.96" width="88.6" height="3.52"/><rect class="cls-3" x="249.4" y="162.5" width="88.6" height="3.52"/><rect class="cls-3" x="92.85" y="158.98" width="88.6" height="3.52"/><rect class="cls-3" x="92.85" y="165.52" width="88.6" height="3.52"/><rect class="cls-3" x="92.85" y="172.07" width="88.6" height="3.52"/><rect class="cls-3" x="92.85" y="178.61" width="88.6" height="3.52"/><rect class="cls-3" x="92.85" y="185.15" width="88.6" height="3.52"/><rect class="cls-3" x="92.85" y="191.7" width="88.6" height="3.52"/><path class="cls-4" d="M345.75,64.83c13.84,3.11,20,11.6,19.78,25.43q0,9.31-.12,18.63c-.32,26.74-1.16,53.47-1.16,80.22-.13,17,0,34-.38,50.95-19.32.23-38.64.52-58,.43-20.13-.1-40.25-.62-60.38-.75-40.25-.28-80.51.12-120.77.14-22.37,0-44.76-.2-67.11.66-.6-16.43-.43-32.92-.65-49.36-.24-17.82-.35-35.64-.48-53.46q-.09-13.5-.19-27c0-7-.32-14.18.67-21.17.85-6,2.63-12.11,6.95-16.49,5.17-5.26,12.77-5.8,19.74-6,35.88-.86,71.77-1.22,107.66-1.82S263,64.17,298.83,63.63c9-.14,18-.22,27-.29C332.48,63.29,339.23,63.37,345.75,64.83Zm10.41,153c.94-6.88.14-14.12,0-21q-.28-12.22-.58-24.44-.57-23.94-1.15-47.88c-.18-7.63-.26-15.26-.55-22.87-.24-6.08-.88-12.64-4.59-17.74-7.38-10.17-22-9.22-33.3-9.36-42.48-.52-85.07-1.92-127.55-.82-5.34.14-10.64.11-16,.15q-24.62-.12-49.24-.18c-7.79,0-15.62-.23-23.41,0-5.85.15-11.87.71-17.3,3A20.19,20.19,0,0,0,71.32,87.44c-2.56,6-2.49,12.66-2.56,19.06q-.29,24.06-.66,48.12t-.72,48.12c-.09,6.21-.66,13,2.05,18.79,2.49,5.36,7.67,8.21,13.42,9.2,6.6,1.12,13.5.63,20.16.61l25.11-.05,49.21-.11,99.44-.21,49.21-.11c4,0,8,0,12,0,3.29,0,6.7-.07,9.81-1.23C353,227.67,355.45,223,356.16,217.81Z"/><path class="cls-1" d="M285.71,334.11c-3.19-3.54-9.48-3.14-13.81-3.45q-8.44-.59-16.9-1-33.1-1.65-66.25-.58a22.17,22.17,0,0,1-3.14.16c-1.61-.17-3.22-.52-4.83-.73a94.74,94.74,0,0,0-29.15.94c-4.4.84-9,2.18-11.87,5.66-1.43,1.76-2.22,4.47-.8,6.24,1,1.29,2.84,1.6,4.47,1.8a154,154,0,0,0,24.38,1q6.16-.24,12.3-1c3.41-.41,7-1.51,10.4-.9,3.08.55,6.5.14,9.62.13q33.47-.14,66.93-.33c4.78,0,9.89.49,14.62-.29,1.78-.29,4-.85,5-2.49S287,335.5,285.71,334.11Z"/><path class="cls-5" d="M210.05,276.73l46.86.55c-.76,3.25-.52,7-.56,10.19q-.08,6.45-.1,12.9c0,4.3.05,8.6.08,12.9,0,4-.27,8.21.05,12.23q-31.56-1.59-63.15-.73-9.31.25-18.6.75c.16-4.12-.29-8.33-.47-12.44-.18-4.47-.35-8.94-.56-13.4-.21-4.3-.45-8.6-.68-12.9-.18-3.25,0-7.16-.74-10.5Z"/><path class="cls-1" d="M363.77,244.24c-.19,5.95-.75,12.19-3.55,17.49-3.35,6.37-9.49,9.43-16.36,10.61-7.43,1.27-15.22.67-22.72.59l-27.14-.3-53.79-.6-108.07-1.2-26.64-.29c-8.06-.09-16.21.17-24.25-.53-6.46-.57-13.34-2.22-17.79-7.29C58.84,257.47,58,250,57.74,243.25c0-.38,0-.76,0-1.14,19.65.85,39.33.85,59,1q30.2.16,60.39.47t60.38.35c20.13.06,40.25-.42,60.38-.41C319.83,243.51,341.8,243.87,363.77,244.24Z"/><path class="cls-6" d="M364.94,69.48c-8-9.11-21.29-10.89-32.73-11.07-8.61-.14-17.24.26-25.84.38-9.38.14-18.75.24-28.13.35L222,59.85q-56.26.69-112.52,1.21c-9.15.1-18.32,0-27.46.31-7.53.21-15.12,1.36-21,6.37-10.4,8.78-10.1,24.63-9.9,37q.88,56.24,1.5,112.44c.08,8.81-.05,17.66.32,26.47.28,6.85,1.21,14.18,5.14,20,8.6,12.77,25.9,11.59,39.44,11.75l71.28.85c-.52,3.24-.08,6.91,0,10,.08,4.47.13,8.94.23,13.4.1,4.3.24,8.6.36,12.9.12,4.12,0,8.37.39,12.49a96,96,0,0,0-10.18.41c-6.91.62-14.75,1.67-20.79,5.34-5.31,3.21-6.13,9.51-.83,13.24,2.77,1.95,6.31,2.14,9.57,2.34q6.42.42,12.85.5c4.61.06,9.23,0,13.84-.23l3.28-.18,6.59,0c26.17-.08,52.35-.05,78.51-.06,6,0,12.12.43,18.06-.17,3.87-.39,8.18-1.57,10.07-5.33,2-4.09-.17-8.87-3.7-11.3-4.29-2.95-10.08-2.83-15.06-3.18q-5.49-.37-11-.69c.28-4.1-.09-8.38-.13-12.47,0-4.3,0-8.6-.13-12.9s-.18-8.6-.3-12.9c-.08-3.14.1-6.93-.7-10.16l63,.75c14,.17,31.43,1.72,40.66-11.17,4.05-5.64,5.35-12.88,5.78-19.66.55-8.48.24-17,.25-25.53q0-28.33.09-56.67c0-17,.23-33.91.8-50.86,0-1.25.12-2.51.21-3.8C371.43,96.55,374.62,80.5,364.94,69.48ZM174.16,313.08c-.18-4.47-.35-8.94-.56-13.4-.21-4.3-.45-8.6-.68-12.9-.18-3.25,0-7.16-.74-10.5l37.87.45,46.86.55c-.76,3.25-.52,7-.56,10.19q-.08,6.45-.1,12.9c0,4.3.05,8.6.08,12.9,0,4-.27,8.21.05,12.23q-31.56-1.59-63.15-.73c-5.73.16-11.46.4-17.18.68l-1.42-.13C174.77,321.26,174.34,317.12,174.16,313.08Zm97.74,17.58c4.33.31,10.62-.09,13.81,3.45,1.25,1.39,2.07,3.45,1,5.19s-3.24,2.2-5,2.49c-4.73.78-9.84.26-14.62.29-29.94.15-59.91-.19-89.84.17-5.3.06-10.65.55-15.92.55-4.29,0-8.57-.16-12.85-.45-2.82-.18-9.7-.1-9.7-4.36,0-3.4,5.19-4.56,7.68-5.35,9.24-2.93,19.28-2.38,28.83-2.84,10.52-.5,21-1,31.56-1.11q22.73-.22,45.45.83l2.73.13Q263.45,330.07,271.9,330.66Zm88.32-68.93c-3.35,6.37-9.49,9.43-16.36,10.61-7.43,1.27-15.22.67-22.72.59l-27.14-.3-53.79-.6-108.07-1.2-26.64-.29c-8.06-.09-16.21.17-24.25-.53-6.46-.57-13.34-2.22-17.79-7.29C58.84,257.47,58,250,57.74,243.25c0-.38,0-.76,0-1.14,19.65.85,39.33.85,59,1q30.2.16,60.39.47t60.38.35c20.13.06,40.25-.42,60.38-.41,22,0,43.95.38,65.92.75C363.58,250.19,363,256.43,360.22,261.73Zm5.31-171.47q0,9.31-.12,18.63c-.32,26.74-1.16,53.47-1.16,80.22-.13,17,0,34-.38,50.95-19.32.23-38.64.52-58,.43-20.13-.1-40.25-.62-60.38-.75-40.25-.28-80.51.12-120.77.14-22.37,0-44.76-.2-67.11.66-.6-16.43-.43-32.92-.65-49.36-.24-17.82-.35-35.64-.48-53.46q-.09-13.5-.19-27c0-7-.32-14.18.67-21.17.85-6,2.63-12.11,6.95-16.49,5.17-5.26,12.77-5.8,19.74-6,35.88-.86,71.77-1.22,107.66-1.82S263,64.17,298.83,63.63c9-.14,18-.22,27-.29,6.65-.05,13.4,0,19.92,1.49C359.59,67.94,365.79,76.43,365.53,90.26Z"/><path class="cls-6" d="M356.13,196.78c.17,6.91,1,14.15,0,21-.71,5.14-3.15,9.86-8.32,11.8-3.11,1.16-6.52,1.21-9.81,1.23-4,0-8,0-12,0l-49.21.11-99.44.21-49.21.11-25.11.05c-6.66,0-13.56.51-20.16-.61-5.75-1-10.93-3.84-13.42-9.2-2.71-5.81-2.14-12.58-2.05-18.79q.39-24.06.72-48.12t.66-48.12c.07-6.4,0-13,2.56-19.06A20.19,20.19,0,0,1,82.48,76.58c5.43-2.25,11.45-2.81,17.3-3,7.79-.21,15.62,0,23.41,0q24.62.08,49.24.18c5.34,0,10.64,0,16-.15,42.48-1.1,85.07.3,127.55.82,11.26.14,25.92-.81,33.3,9.36,3.71,5.1,4.35,11.66,4.59,17.74.29,7.61.37,15.24.55,22.87q.59,23.94,1.15,47.88Q355.84,184.57,356.13,196.78ZM353.19,217c.62-6.68,0-13.57-.11-20.26-.55-30.63-1-61.25-1.63-91.88-.13-6.09-.23-12.8-3.72-18.09s-10.06-7.46-16.27-8.22c-6.59-.81-13.33-.62-19.95-.76l-24-.5L248,76.51c-31-.05-62.06-.28-93.09-.52l-47.22-.35c-11.12-.08-26-.64-32.64,10-3.47,5.56-3.39,12.6-3.54,18.9q-.28,11.77-.54,23.57-.48,23.07-1,46.15-.23,11.29-.46,22.59c-.13,6.59-1.05,13.89.77,20.33,1.94,6.83,7.8,9.81,14.56,10.58s13.78.37,20.6.39l188.83.71,24.1.09c7.41,0,14.89.37,22.3,0,3.47-.15,7.13-.82,9.5-3.53C352.23,223.16,352.91,220,353.19,217Z"/><path class="cls-5" d="M292.75,253.59a9.18,9.18,0,0,1-.32,1.42c-.78,2.44-2.44,5-5.13,5.61-5,1.06-7.11-3.66-8.32-8a11.41,11.41,0,0,0,4.66.89c2.4.11,4.82.31,7.22.29A9.68,9.68,0,0,0,292.75,253.59Z"/><path class="cls-5" d="M293.66,246.39c.4,2.08-.24,3.35-2.45,3.52a52.73,52.73,0,0,1-6.15-.2c-1.66-.07-3.65.26-4.65-1.35a6.48,6.48,0,0,1-.61-4c.05-.48.1-1,.16-1.43,2.43.27,4.87.54,7.31.66a23.6,23.6,0,0,0,5.57.1A17.23,17.23,0,0,1,293.66,246.39Z"/><path class="cls-7" d="M284,210.17l11.23-.8c-3.07,10.49-6.06,21-9.09,31.51l-.66,0a217.16,217.16,0,0,0-7.54-23.42c-.83-2.25-3.15-5.56.32-6.89a6.4,6.4,0,0,1,2-.36C281.5,210.16,282.93,210.25,284,210.17Z"/><path class="cls-7" d="M297.92,194.44a21.16,21.16,0,0,1,5.19,31.48c-3.43,4.09-10.66,6.1-11.45,12a7.64,7.64,0,0,0,.18,2.84,23.7,23.7,0,0,0-3.37,0c2.94-10.72,5.93-21.43,8.82-32.16a.91.91,0,0,0-.86-1.14L280.63,209l-.49,0c-2.68.17-6.56-.12-6.16,3.57.26,2.32,1.41,4.72,2.13,6.93.81,2.49,1.62,5,2.52,7.45,1.72,4.72,3.38,9.43,5.44,14-1.31.08-2.61.18-3.9.29.26-2.35.34-4.64-.94-6.89-1.39-2.45-3.79-4-6-5.66a21.74,21.74,0,0,1-6.25-7.33,20.44,20.44,0,0,1-1.14-15.95.74.74,0,0,0,.14-.23C270.91,192.7,286.54,187.44,297.92,194.44Z"/><path class="cls-6" d="M285.46,240.9l-1.39.08c-2.06-4.59-3.72-9.3-5.44-14-.9-2.47-1.71-5-2.52-7.45-.72-2.21-1.87-4.61-2.13-6.93-.4-3.69,3.48-3.4,6.16-3.57l.07,1.22a6.4,6.4,0,0,0-2,.36c-3.47,1.33-1.15,4.64-.32,6.89A217.16,217.16,0,0,1,285.46,240.9Z"/><path class="cls-6" d="M284,210.17c-1.05.08-2.48,0-3.77.06l-.07-1.22.49,0,15.8-1.48a.91.91,0,0,1,.86,1.14c-2.89,10.73-5.88,21.44-8.82,32.16a23.7,23.7,0,0,1,3.37,0,7.64,7.64,0,0,1-.18-2.84c.79-5.89,8-7.9,11.45-12a21.16,21.16,0,0,0-5.19-31.48c-11.38-7-27-1.74-31.9,10.77a.74.74,0,0,1-.14.23A20.44,20.44,0,0,0,267,221.39a21.74,21.74,0,0,0,6.25,7.33c2.17,1.67,4.57,3.21,6,5.66,1.28,2.25,1.2,4.54.94,6.89,1.29-.11,2.59-.21,3.9-.29l1.39-.08.66,0c3-10.5,6-21,9.09-31.51Zm18.82-17.31c11.68,9.36,12.14,26.9,1.65,37.39-2.35,2.36-6.59,3.9-8.21,6.83-1.24,2.25.27,4.7.94,6.88a10.4,10.4,0,0,1,.45,4.85,6.1,6.1,0,0,1-.62,1.82c.29,2.85-1.3,6.64-2.58,8.62-1.72,2.64-4.48,4.74-7.73,4.82-7.19.18-10.51-7.23-9.87-13.45a10.34,10.34,0,0,1-1.21-6.26c.22-2.29,1.17-4.83.45-7.11-.6-1.88-2.33-3.2-3.82-4.36-6.11-4.77-10.37-10.7-11.06-18.64a23.61,23.61,0,0,1,14.27-23.55,24.46,24.46,0,0,1,4.62-2.19C287.79,185.79,296.53,187.83,302.8,192.86Zm-11.59,57c2.21-.17,2.85-1.44,2.45-3.52a17.23,17.23,0,0,0-.82-2.7,23.6,23.6,0,0,1-5.57-.1c-2.44-.12-4.88-.39-7.31-.66-.06.48-.11.95-.16,1.43a6.48,6.48,0,0,0,.61,4c1,1.61,3,1.28,4.65,1.35A52.73,52.73,0,0,0,291.21,249.91Zm1.22,5.1a9.18,9.18,0,0,0,.32-1.42,9.68,9.68,0,0,1-1.89.2c-2.4,0-4.82-.18-7.22-.29a11.41,11.41,0,0,1-4.66-.89c1.21,4.35,3.36,9.07,8.32,8C290,260,291.65,257.45,292.43,255Z"/><path class="cls-6" d="M418.14,292.76c2,10.37-2.49,20.54-10.94,26.66-9.12,6.61-21.33,7.15-31.54,2.85-9.55-4-17.43-12.41-16.92-23.34.49-10.08,8-19.76,17.25-23.85.19-2.57.33-5.15.44-7.73-.23-3.21-.39-6.43-.53-9.67-.17-4.05-.71-8.25-.48-12.3.38-6.88,6.95-7.88,12.6-7.38,2.81.25,5.74.91,7.56,3.26,2,2.62,1.61,6.07,1.45,9.17q-.63,12-1.25,24.06A22.73,22.73,0,0,1,418.14,292.76Zm-11.79,21.92a21.93,21.93,0,0,0,6.9-23.43,17.7,17.7,0,0,0-3-5.46c-.77,2.77-3.46,5.66-5.24,7-3.88,3-8.94,4-13.75,3.81A27.25,27.25,0,0,1,370,285a19.67,19.67,0,0,0-2.92,3.15,20.17,20.17,0,0,0-4.11,14c1,9.14,9.73,15.24,17.94,17.55C389.66,322.14,399.35,320.68,406.35,314.68Zm.22-27.42a18,18,0,0,0,1.08-3.06c-4.55,3.84-10.49,5.56-16.38,3.76-3.71-1.14-7-3.37-10.77-4.3a18.52,18.52,0,0,0-9.09.15l-.74.58c4.86,5.59,11.62,9.54,19.11,10.09,4.3.32,8.92-.37,12.59-2.77A13,13,0,0,0,406.57,287.26ZM396.7,287a14,14,0,0,0,10-4.67A18.65,18.65,0,0,0,393.46,279a2.22,2.22,0,0,1-2.21-2.21l1.38-20.53c.21-3.1.6-6.24.61-9.36,0-3.51-2-4.73-5.22-5-2.09-.21-5.43-.92-7.11.8s-.58,7.92-.55,10.44c.11,7.9.18,15.8.57,23.7a2.51,2.51,0,0,1-1.26,2.19c-2.07,1.09-4.08,2.09-6,3.24A22,22,0,0,1,385.65,284C389.22,285.45,392.73,287.21,396.7,287Z"/><path class="cls-8" d="M413.25,291.25a21.93,21.93,0,0,1-6.9,23.43c-7,6-16.69,7.46-25.44,5-8.21-2.31-16.94-8.41-17.94-17.55a20.17,20.17,0,0,1,4.11-14A19.67,19.67,0,0,1,370,285a27.25,27.25,0,0,0,21.29,11.66c4.81.22,9.87-.85,13.75-3.81,1.78-1.36,4.47-4.25,5.24-7A17.7,17.7,0,0,1,413.25,291.25Z"/><path class="cls-9" d="M407.65,284.2a18,18,0,0,1-1.08,3.06,13,13,0,0,1-4.2,4.45c-3.67,2.4-8.29,3.09-12.59,2.77-7.49-.55-14.25-4.5-19.11-10.09l.74-.58a18.52,18.52,0,0,1,9.09-.15c3.78.93,7.06,3.16,10.77,4.3C397.16,289.76,403.1,288,407.65,284.2Z"/><path class="cls-10" d="M406.67,282.35a14,14,0,0,1-10,4.67c-4,.19-7.48-1.57-11.05-3.06a22,22,0,0,0-11.95-1.69c1.89-1.15,3.9-2.15,6-3.24a2.51,2.51,0,0,0,1.26-2.19c-.39-7.9-.46-15.8-.57-23.7,0-2.52-1.26-8.59.55-10.44s5-1,7.11-.8c3.26.31,5.22,1.53,5.22,5,0,3.12-.4,6.26-.61,9.36l-1.38,20.53a2.22,2.22,0,0,0,2.21,2.21A18.65,18.65,0,0,1,406.67,282.35Z"/><path class="cls-6" d="M418.68,235.86c.72,1.67-.49,4.17-2.63,3.42a128,128,0,0,1-42.15-24.79,121.59,121.59,0,0,1-15.45-16.24,1,1,0,0,1-.87-.41,107.55,107.55,0,0,1-8.87-12.72c-1.52-2.55-3.3-5.52-3.54-8.55-5,1.66-11.73-3.95-14.44-7.38a20.88,20.88,0,0,1-4-8.55c-.8-3.51-1-8.85-5-10.39-2.15-.84-1.33-4.22,1-3.54,7.51,2.21,15.88,3.95,22.41,8.51,4.59,3.21,8.06,8.6,7.21,14.21a13.53,13.53,0,0,1,1.41.85c3.83,2.59,7.67,5.18,11.46,7.83a257.25,257.25,0,0,1,22.47,17.24C400.53,206.61,411.9,220,418.68,235.86Zm-6.53-3a96.22,96.22,0,0,0-10.32-16.08c-9.5-12-21.35-22-33.68-31l-1.39-1c-1.9.91-3.7,1.55-5.21,3.28a12.89,12.89,0,0,0-2.52,4.85,139.53,139.53,0,0,0,17.53,18.35A127.12,127.12,0,0,0,412.15,232.85Zm-47.57-49.61q-3.1-2.22-6.25-4.4c-1.77-1.24-3.55-2.46-5.34-3.68-1.48-1-2.8-2.6-4.07-.48-.76,1.28-.56,2.91.07,4.59q4.18,6.21,8.81,12.12A12.12,12.12,0,0,1,364.58,183.24Zm-16.19-13.52c1.51-5.45-2.57-10.07-7.14-12.75l0,0c-2.64.87-2.35,3.18-3.08,5.42a4.69,4.69,0,0,1-2.15,2.83,3.55,3.55,0,0,1-2.88.15,17.87,17.87,0,0,0,5.08,5.06c2.21,1.43,5.07,1.89,7.25,3.29a8.31,8.31,0,0,1,.33-.91A6.66,6.66,0,0,1,348.39,169.72Zm-11.24-11.51a5,5,0,0,1,1.75-2.46,63.22,63.22,0,0,0-10.53-3.8c1.59,3.48,1.87,7.87,3.58,11.42l.12.23c1.53,1.29,3.68.37,4.31-1.68C336.75,160.71,336.75,159.42,337.15,158.21Z"/><path class="cls-11" d="M401.83,216.77a96.22,96.22,0,0,1,10.32,16.08,127.12,127.12,0,0,1-35.59-21.57A139.53,139.53,0,0,1,359,192.93a12.89,12.89,0,0,1,2.52-4.85c1.51-1.73,3.31-2.37,5.21-3.28l1.39,1C380.48,194.81,392.33,204.74,401.83,216.77Z"/><path class="cls-12" d="M358.33,178.84q3.15,2.17,6.25,4.4a12.12,12.12,0,0,0-6.78,8.15q-4.64-5.89-8.81-12.12c-.63-1.68-.83-3.31-.07-4.59,1.27-2.12,2.59-.53,4.07.48C354.78,176.38,356.56,177.6,358.33,178.84Z"/><path class="cls-13" d="M341.25,157c4.57,2.68,8.65,7.3,7.14,12.75a6.66,6.66,0,0,0-2.63,3.11,8.31,8.31,0,0,0-.33.91c-2.18-1.4-5-1.86-7.25-3.29a17.87,17.87,0,0,1-5.08-5.06,3.55,3.55,0,0,0,2.88-.15,4.69,4.69,0,0,0,2.15-2.83c.73-2.24.44-4.55,3.08-5.42Z"/><path class="cls-8" d="M338.9,155.75a5,5,0,0,0-1.75,2.46c-.4,1.21-.4,2.5-.77,3.71-.63,2.05-2.78,3-4.31,1.68l-.12-.23c-1.71-3.55-2-7.94-3.58-11.42A63.22,63.22,0,0,1,338.9,155.75Z"/><path class="cls-6" d="M89.72,132.42c.18,1.48,1.06,4.51.23,5.91-2.24,3.79-10.63.42-13.61-.16a23.14,23.14,0,0,1-9.5-4c-6.22-4.6-11.11-11.29-16.25-17q-8.72-9.66-17.34-19.4c-1.9-2.15-3.76-4.34-5.6-6.54-1.3-1.36-2.6-2.74-3.88-4.11-3.85-4.14-9.07-8.43-11-13.9-1.45-4-.69-8.84,3-11.36,3.31-2.24,7.7-2.19,11.27-.66,5,2.13,8.69,6.52,12.46,10.22l13.3,13c8.78,8.62,17.69,17.12,26.4,25.8,3.73,3.72,6.85,7.71,8.58,12.74A44,44,0,0,1,89.72,132.42Zm-4.32,3c-.12-1.56-.27-3.13-.48-4.68a23.14,23.14,0,0,0-2.54,1.84,19.22,19.22,0,0,0-1.67,1.71A43.87,43.87,0,0,1,85.4,135.42Zm-.93-7.29a31.63,31.63,0,0,0-1.3-4.69,19.1,19.1,0,0,0-1-2.2,23.46,23.46,0,0,0-6.57,4.23c-1.9,1.91-2.86,4.09-4.07,6.28a29.76,29.76,0,0,0,7.4,2.18,14.85,14.85,0,0,1,1.91-2.88A9.9,9.9,0,0,1,84.47,128.13ZM81,119.22a55.39,55.39,0,0,0-7.5-8.43Q62.21,99.65,50.94,88.51l-8.47-8.34c-1.44,1.47-3.23,2.72-4.64,4l-.95.82c3.4,2.08,6.36,5.54,9.19,8.26l10.1,9.73Q66.1,112.5,76,122.11A17.23,17.23,0,0,1,81,119.22Zm-11.12,11.6a16.46,16.46,0,0,1,4.33-7.09q-9.78-9.63-19.47-19.36-4.95-5-9.91-9.91c-2.8-2.79-6.32-5.67-8.46-9.06a58.89,58.89,0,0,1-5.78,4.42l.89,1q2.18,2.2,4.31,4.45,8.61,9.06,17.08,18.24l8.84,9.52c2.42,2.61,4.8,5.44,7.74,7.49ZM39.72,77.46c-.72-.7-1.43-1.42-2.14-2.15-1.72,1.44-3.56,2.74-5.21,4.28-2,1.84-3.86,3.75-5.66,5.76L29,88a66.49,66.49,0,0,1,6.28-6.4C36.66,80.39,38.12,78.75,39.72,77.46ZM36.24,74l-2.12-2.14A64.83,64.83,0,0,0,28.21,77c-1.53,1.52-2.85,3.43-4.5,4.86l2.46,2.83C28.92,80.87,32.29,76.75,36.24,74ZM31.67,69.5c-.75-.69-1.51-1.36-2.29-2-3-2.5-8-4.88-11.64-2-4,3.18-.5,8.79,1.93,11.67L22.05,80a27.54,27.54,0,0,1,4.23-5.46A44,44,0,0,1,31.67,69.5Z"/><path class="cls-4" d="M84.92,130.74c.21,1.55.36,3.12.48,4.68a43.87,43.87,0,0,0-4.69-1.13,19.22,19.22,0,0,1,1.67-1.71A23.14,23.14,0,0,1,84.92,130.74Z"/><path class="cls-13" d="M83.17,123.44a31.63,31.63,0,0,1,1.3,4.69,9.9,9.9,0,0,0-3.62,2.92,14.85,14.85,0,0,0-1.91,2.88,29.76,29.76,0,0,1-7.4-2.18c1.21-2.19,2.17-4.37,4.07-6.28a23.46,23.46,0,0,1,6.57-4.23A19.1,19.1,0,0,1,83.17,123.44Z"/><path class="cls-14" d="M73.49,110.79a55.39,55.39,0,0,1,7.5,8.43,17.23,17.23,0,0,0-5,2.89q-9.87-9.63-19.83-19.17l-10.1-9.73C43.24,90.49,40.28,87,36.88,85l.95-.82c1.41-1.24,3.2-2.49,4.64-4l8.47,8.34Q62.24,99.63,73.49,110.79Z"/><path class="cls-14" d="M74.2,123.73a16.46,16.46,0,0,0-4.33,7.09l-.43-.28c-2.94-2-5.32-4.88-7.74-7.49l-8.84-9.52q-8.49-9.16-17.08-18.24Q33.65,93,31.47,90.84l-.89-1a58.89,58.89,0,0,0,5.78-4.42c2.14,3.39,5.66,6.27,8.46,9.06q4.95,5,9.91,9.91Q64.45,114.08,74.2,123.73Z"/><path class="cls-7" d="M37.58,75.31c.71.73,1.42,1.45,2.14,2.15-1.6,1.29-3.06,2.93-4.41,4.16A66.49,66.49,0,0,0,29,88l-2.32-2.67c1.8-2,3.7-3.92,5.66-5.76C34,78.05,35.86,76.75,37.58,75.31Z"/><path class="cls-7" d="M34.12,71.83,36.24,74c-4,2.78-7.32,6.9-10.07,10.75l-2.46-2.83c1.65-1.43,3-3.34,4.5-4.86A64.83,64.83,0,0,1,34.12,71.83Z"/><path class="cls-9" d="M29.38,67.49c.78.65,1.54,1.32,2.29,2a44,44,0,0,0-5.39,5A27.54,27.54,0,0,0,22.05,80l-2.38-2.79c-2.43-2.88-5.91-8.49-1.93-11.67C21.35,62.61,26.34,65,29.38,67.49Z"/><path class="cls-6" d="M117.66,107.46c-.19,1.48,0,4.63-1.19,5.8-3.09,3.14-10.42-2.13-13.18-3.41A23.13,23.13,0,0,1,95,103.73c-4.93-5.94-8.09-13.61-11.72-20.37-4.11-7.64-8.2-15.28-12.21-23-1.33-2.55-2.62-5.11-3.89-7.69-.93-1.63-1.86-3.28-2.78-4.92C61.65,42.84,57.61,37.43,57,31.66c-.44-4.27,1.44-8.76,5.66-10.31,3.74-1.39,8-.29,11.1,2,4.3,3.25,6.88,8.41,9.66,12.9l9.8,15.84c6.48,10.46,13.1,20.84,19.49,31.35,2.74,4.5,4.81,9.12,5.3,14.42A45,45,0,0,1,117.66,107.46Zm-4.92,1.88c.26-1.54.49-3.1.65-4.66a22.87,22.87,0,0,0-2.9,1.18,19.76,19.76,0,0,0-2,1.26A44.42,44.42,0,0,1,112.74,109.34Zm.84-7.3a30.46,30.46,0,0,0-.15-4.87A18.34,18.34,0,0,0,113,94.8a23.35,23.35,0,0,0-7.39,2.54c-2.31,1.4-3.76,3.29-5.45,5.14a30.46,30.46,0,0,0,6.66,3.88,14.58,14.58,0,0,1,2.55-2.35A9.78,9.78,0,0,1,113.58,102Zm-1.25-9.49a55.7,55.7,0,0,0-5.28-10q-8.28-13.51-16.59-27L84.23,45.45c-1.75,1.08-3.78,1.87-5.46,2.74l-1.11.56c2.81,2.83,4.85,6.9,7,10.22L92.1,70.82c4.91,7.77,9.83,15.54,14.69,23.35A17.57,17.57,0,0,1,112.33,92.55Zm-13.57,8.62a16.42,16.42,0,0,1,5.89-5.85q-7.2-11.7-14.28-23.45-3.65-6-7.27-12c-2-3.38-4.78-7-6.06-10.82A57.92,57.92,0,0,1,70.38,52c.21.4.42.8.62,1.2,1.06,1.78,2.1,3.56,3.13,5.36q6.2,10.84,12.23,21.78l6.31,11.35c1.73,3.12,3.37,6.43,5.74,9.13C98.52,100.93,98.64,101,98.76,101.17Zm-16.56-59c-.52-.85-1-1.73-1.56-2.6-2,1-4.11,1.81-6.08,2.91-2.35,1.32-4.65,2.73-6.87,4.24.54,1,1.08,2.1,1.61,3.15a66.48,66.48,0,0,1,7.63-4.71C78.54,44.28,80.34,43,82.2,42.16Zm-2.54-4.22-1.55-2.59a65.17,65.17,0,0,0-7,3.65c-1.85,1.11-3.59,2.64-5.53,3.64L67.31,46C70.9,42.89,75.16,39.7,79.66,37.94ZM76.29,32.5c-.56-.84-1.14-1.68-1.75-2.49-2.35-3.16-6.63-6.65-10.83-4.7-4.62,2.14-2.59,8.42-.91,11.79.54,1.1,1.1,2.19,1.65,3.28a27,27,0,0,1,5.4-4.29A46.14,46.14,0,0,1,76.29,32.5Z"/><path class="cls-4" d="M113.39,104.68c-.16,1.56-.39,3.12-.65,4.66a44.42,44.42,0,0,0-4.28-2.22,19.76,19.76,0,0,1,2-1.26A22.87,22.87,0,0,1,113.39,104.68Z"/><path class="cls-13" d="M113.43,97.17a30.46,30.46,0,0,1,.15,4.87,9.78,9.78,0,0,0-4.21,2,14.58,14.58,0,0,0-2.55,2.35,30.46,30.46,0,0,1-6.66-3.88c1.69-1.85,3.14-3.74,5.45-5.14A23.35,23.35,0,0,1,113,94.8,18.34,18.34,0,0,1,113.43,97.17Z"/><path class="cls-15" d="M107.05,82.58a55.7,55.7,0,0,1,5.28,10,17.57,17.57,0,0,0-5.54,1.62C101.93,86.36,97,78.59,92.1,70.82L84.61,59c-2.1-3.32-4.14-7.39-7-10.22l1.11-.56c1.68-.87,3.71-1.66,5.46-2.74l6.23,10.12Q98.79,69.06,107.05,82.58Z"/><path class="cls-15" d="M104.65,95.32a16.42,16.42,0,0,0-5.89,5.85c-.12-.13-.24-.24-.35-.37-2.37-2.7-4-6-5.74-9.13L86.36,80.32Q80.3,69.4,74.13,58.54c-1-1.8-2.07-3.58-3.13-5.36-.2-.4-.41-.8-.62-1.2A57.92,57.92,0,0,0,77,49.06c1.28,3.81,4,7.44,6.06,10.82q3.63,6,7.27,12Q97.48,83.62,104.65,95.32Z"/><path class="cls-7" d="M80.64,39.56c.52.87,1,1.75,1.56,2.6-1.86.87-3.66,2.12-5.27,3a66.48,66.48,0,0,0-7.63,4.71c-.53-1-1.07-2.1-1.61-3.15,2.22-1.51,4.52-2.92,6.87-4.24C76.53,41.37,78.63,40.55,80.64,39.56Z"/><path class="cls-7" d="M78.11,35.35l1.55,2.59c-4.5,1.76-8.76,5-12.35,8L65.6,42.64c1.94-1,3.68-2.53,5.53-3.64A65.17,65.17,0,0,1,78.11,35.35Z"/><path class="cls-9" d="M74.54,30c.61.81,1.19,1.65,1.75,2.49a46.14,46.14,0,0,0-6.44,3.59,27,27,0,0,0-5.4,4.29c-.55-1.09-1.11-2.18-1.65-3.28-1.68-3.37-3.71-9.65.91-11.79C67.91,23.36,72.19,26.85,74.54,30Z"/><path class="cls-10" d="M95.46,189.32c9.34,5.32,13.75,17.52,10.56,27.67s-14.23,16.87-24.75,16c-11.16-.9-20.22-11.09-21.16-22-.77-9,4.18-17.08,11.42-21.81C78.94,185.44,88.18,185.17,95.46,189.32Z"/><path class="cls-6" d="M101.17,189.27c9,7.94,12,22.22,6.18,32.87S87.89,238.75,76.19,235.2s-20.3-16-18.82-28.31A26.84,26.84,0,0,1,66.66,190C75.89,181.22,91.48,180.76,101.17,189.27ZM106,217c3.19-10.15-1.22-22.35-10.56-27.67-7.28-4.15-16.52-3.88-23.93-.15C64.29,193.9,59.34,202,60.11,211c.94,10.94,10,21.13,21.16,22C91.79,233.86,102.8,227.24,106,217Z"/><path class="cls-5" d="M76.19,235.2c11.7,3.55,25.37-2.38,31.16-13.06s2.85-24.93-6.18-32.87c-9.69-8.51-25.28-8.05-34.51.7a26.84,26.84,0,0,0-9.29,16.92C55.89,219.19,64.42,231.63,76.19,235.2ZM100,181.48c12.92,7.36,19,24.26,14.62,38.32S94.88,243.16,80.31,242c-15.46-1.25-28-15.35-29.31-30.5-1.06-12.49,5.79-23.65,15.82-30.21C77.08,176.1,89.89,175.74,100,181.48Z"/><path class="cls-6" d="M51,211.48c1.3,15.15,13.85,29.25,29.31,30.5,14.57,1.18,29.83-8,34.28-22.18s-1.7-31-14.62-38.32c-10.08-5.74-22.89-5.38-33.15-.21C56.79,187.83,49.94,199,51,211.48Zm-2.37,38.23a41.2,41.2,0,0,1,5.18-5.42l6.64-6.38a39,39,0,0,1-3.35-3.21c-2,2.07-4.63,3.86-6.67,5.61a47.89,47.89,0,0,1-5.89,4.81A9.68,9.68,0,0,1,48.63,249.71Zm-44,33.89c1.33,4.87,7.6,2.65,10.42.8,4-2.63,7.62-5.91,11.31-8.91s7.49-6.06,11.19-9.14c3.35-2.78,7.06-6.1,7.77-10.64.83-5.31-3.64-8.87-8.6-6.67a16.8,16.8,0,0,0-2.45,1.35C26.63,258,19,265.54,11,272.88,8.29,275.42,3.42,279.27,4.62,283.6ZM107.86,181.41c12.52,11,16.56,30.77,8.57,45.52s-26.95,23-43.16,18.09a35.25,35.25,0,0,1-10.08-5l-7.1,6.53c-1.93,1.77-4.23,4.17-6.73,5.42a12,12,0,0,1,0,4.85c-1.08,5.4-5.17,9.35-9.27,12.68-4.91,4-9.89,7.86-14.77,11.86-4,3.29-8.23,7.78-13.44,9.08C7.69,291.52,2.76,290.18.83,286c-2.23-4.81.39-9.91,3.82-13.32,4.15-4.12,8.8-7.89,13.28-11.67,3.67-3.79,7.39-7.53,11.24-11.16,3.37-3.18,7.91-6.62,12.68-5.72,1.55-2.43,4.15-4.36,6.21-6.19,1.63-1.43,3.24-2.87,4.88-4.27.63-.54,1.26-1.13,1.9-1.67a36.33,36.33,0,0,1-7.64-26.18,37.22,37.22,0,0,1,12.87-23.44C72.85,170.26,94.44,169.63,107.86,181.41Z"/><path class="cls-16" d="M53.81,244.29a41.2,41.2,0,0,0-5.18,5.42,9.68,9.68,0,0,0-4.09-4.59,47.89,47.89,0,0,0,5.89-4.81c2-1.75,4.66-3.54,6.67-5.61a39,39,0,0,0,3.35,3.21Z"/><path class="cls-9" d="M15,284.4c-2.82,1.85-9.09,4.07-10.42-.8-1.2-4.33,3.67-8.18,6.4-10.72C19,265.54,26.63,258,34.26,250.39A16.8,16.8,0,0,1,36.71,249c5-2.2,9.43,1.36,8.6,6.67-.71,4.54-4.42,7.86-7.77,10.64-3.7,3.08-7.46,6.09-11.19,9.14S19,281.77,15,284.4Z"/><path class="cls-7" d="M402.43,81.49,390.76,85.9c-.37-1.13-.91-2.24-1.33-3.31s-2.31-.67-1.87.51.78,2.39,1.29,3.53l-7.1,2.68-.3-.56c-.49-.91-1-1.83-1.45-2.75s-1.78-.11-1.34.79.89,1.87,1.33,2.81l.15.33-6.39,2.42c-.47-.91-1-1.81-1.43-2.7s-2.09-.12-1.56.91c.41.81.82,1.64,1.25,2.45l-6.74,2.55c-.69-1-1.56-1.82-2.26-2.76-.56-.73-1.82,0-1.26.74s1.12,1.81,1.73,2.69l-7.1,2.69c-.39-.74-.8-1.46-1.19-2.19-.52-1-2-.11-1.46.86.33.64.65,1.31,1,2l-7.08,2.69A36.82,36.82,0,0,0,345.2,99c-.56-.73-1.69.2-1.25,1,.58,1,1.13,2,1.78,3l-1.93.73a56.89,56.89,0,0,1-7,2.58c-1.24.29-2.07.22-2.78-1a34.22,34.22,0,0,1-1.86-4.3l-1.33-3.21a12.57,12.57,0,0,0,3.27-1.65c.63-.48.31-1.65-.58-1.38a13.19,13.19,0,0,0-3.24,1.7c-.88-2.14-1.77-4.27-2.66-6.41a9.88,9.88,0,0,0,3-1.53.68.68,0,0,0-.47-1.15,10,10,0,0,0-3.25,1l-1-2.41c-.69-1.64-1.37-3.29-2.05-4.93a9.94,9.94,0,0,0,2.18-1.16c.71-.52.33-1.77-.63-1.5a10.46,10.46,0,0,0-2.24,1l-3.12-7.53a10,10,0,0,0,2.85-1.45c.67-.54-.1-1.35-.74-1.26a9.21,9.21,0,0,0-2.81,1c-.9-2.16-1.8-4.34-2.7-6.51A9.13,9.13,0,0,0,319.18,62a.76.76,0,0,0-.73-1.27,8.52,8.52,0,0,0-2.52,1.13q-1.57-3.78-3.13-7.56h0A15.49,15.49,0,0,0,315.37,53a.83.83,0,0,0-.64-1.51,16,16,0,0,0-2.68,1.12c-.82-2-1.64-4-2.48-5.93a13.76,13.76,0,0,0,2.06-1.15A.81.81,0,0,0,311,44a15.89,15.89,0,0,0-2.19.88C308,43,307.17,41,306.33,39.1a15.36,15.36,0,0,0,2.5-1.25c.72-.45.27-1.72-.6-1.42a16.4,16.4,0,0,0-2.57,1.15c-1-2.31-2-4.61-3.06-6.91a11,11,0,0,0,2.78-1.74.68.68,0,0,0-.65-1.12A10.42,10.42,0,0,0,302,29.24l-1.16-2.58c-.53-1.54-1-3.08-1.53-4.62a14.81,14.81,0,0,0,2.7-1.42c.59-.42.26-1.5-.53-1.25a13.57,13.57,0,0,0-2.63,1.19c-1.35-4.29-2.6-8.61-3.7-13,28.33,19.93,57.09,39.29,85.62,58.94ZM378.51,77.8a1.78,1.78,0,0,0,.42-3.2c-21-14.49-41.87-29.14-63-43.35-1.52-1-2.79.9-2.23,2.23,7.43,17.59,15.71,34.76,23.12,52.3,1.25,3,2.67,5.48,6.3,5S350.52,88.32,354,87Z"/><path class="cls-6" d="M408.4,80.11a2.31,2.31,0,0,1-.54,4.15L370.18,98.64l-16.33,6.23-8.79,3.36a54.34,54.34,0,0,1-7,2.55c-2.24.51-4.63.41-6.42-1.19s-2.3-3.72-3.08-5.74L322,87.08q-2-5.1-4-10.19c-2-3.92-3.72-8-5.51-11.92Q308.06,55.1,304.09,45c-5.46-13.86-9.95-28-14.77-42.13A2.29,2.29,0,0,1,292.66.33c8.53,5.73,16.93,11.66,25.39,17.49Q363.23,49,408.4,80.11ZM390.76,85.9l11.67-4.41-21.7-15c-28.53-19.65-57.29-39-85.62-58.94,1.1,4.36,2.35,8.68,3.7,13a13.57,13.57,0,0,1,2.63-1.19c.79-.25,1.12.83.53,1.25a14.81,14.81,0,0,1-2.7,1.42c.5,1.54,1,3.08,1.53,4.62L302,29.24a10.42,10.42,0,0,1,2.77-1.43.68.68,0,0,1,.65,1.12,11,11,0,0,1-2.78,1.74c1,2.3,2,4.6,3.06,6.91a16.4,16.4,0,0,1,2.57-1.15c.87-.3,1.32,1,.6,1.42a15.36,15.36,0,0,1-2.5,1.25c.84,1.93,1.66,3.87,2.49,5.79A15.89,15.89,0,0,1,311,44a.81.81,0,0,1,.62,1.48,13.76,13.76,0,0,1-2.06,1.15c.84,2,1.66,4,2.48,5.93a16,16,0,0,1,2.68-1.12.83.83,0,0,1,.64,1.51,15.49,15.49,0,0,1-2.58,1.37h0q1.56,3.78,3.13,7.56a8.52,8.52,0,0,1,2.52-1.13.76.76,0,0,1,.73,1.27,9.13,9.13,0,0,1-2.52,1.62c.9,2.17,1.8,4.35,2.7,6.51a9.21,9.21,0,0,1,2.81-1c.64-.09,1.41.72.74,1.26a10,10,0,0,1-2.85,1.45l3.12,7.53a10.46,10.46,0,0,1,2.24-1c1-.27,1.34,1,.63,1.5a9.94,9.94,0,0,1-2.18,1.16c.68,1.64,1.36,3.29,2.05,4.93l1,2.41a10,10,0,0,1,3.25-1,.68.68,0,0,1,.47,1.15,9.88,9.88,0,0,1-3,1.53c.89,2.14,1.78,4.27,2.66,6.41a13.19,13.19,0,0,1,3.24-1.7c.89-.27,1.21.9.58,1.38a12.57,12.57,0,0,1-3.27,1.65l1.33,3.21a34.22,34.22,0,0,0,1.86,4.3c.71,1.19,1.54,1.26,2.78,1a56.89,56.89,0,0,0,7-2.58l1.93-.73c-.65-1-1.2-2-1.78-3-.44-.76.69-1.69,1.25-1a36.82,36.82,0,0,1,2.43,3.23l7.08-2.69c-.33-.65-.65-1.32-1-2-.5-1,.94-1.81,1.46-.86.39.73.8,1.45,1.19,2.19l7.1-2.69c-.61-.88-1.13-1.85-1.73-2.69s.7-1.47,1.26-.74c.7.94,1.57,1.8,2.26,2.76L372,93c-.43-.81-.84-1.64-1.25-2.45-.53-1,1-1.94,1.56-.91s1,1.79,1.43,2.7l6.39-2.42L380,89.6c-.44-.94-.89-1.87-1.33-2.81s.88-1.69,1.34-.79,1,1.84,1.45,2.75l.3.56,7.1-2.68c-.51-1.14-.86-2.39-1.29-3.53s1.42-1.66,1.87-.51S390.39,84.77,390.76,85.9Z"/><path class="cls-6" d="M378.93,74.6a1.78,1.78,0,0,1-.42,3.2L354,87c-3.44,1.29-7.2,3.32-10.87,3.77s-5-2.06-6.3-5c-7.41-17.54-15.69-34.71-23.12-52.3-.56-1.33.71-3.25,2.23-2.23C337.06,45.46,357.94,60.11,378.93,74.6Zm-23.36,8.09,18.72-7C355.69,62.84,337,50.12,318.55,37.1c.92,2.35,1.83,4.69,2.74,7,.73,1.4,1.46,2.8,2.13,4.23,1.65,3.54,3.33,7.07,4.92,10.64l9.6,21.42c.78,1.75,1.52,3.52,2.35,5.25.54,1.12.89,1.91,2.35,1.78a8.15,8.15,0,0,0,1.93-.6C348.25,85.51,351.9,84.07,355.57,82.69Z"/><path class="cls-6" d="M114.08,316.43q.18,8.47,0,17c-.09,4.5.28,9.71-1.94,13.81-4.4,8.16-16.23,6.15-23.79,5.9q-17.42-.54-34.82-1.11c-5.55-.17-11.14-.21-16.68-.54-3.73-.22-7.78-1.21-9.33-5-.87-2.13-.74-4.54-.77-6.78-.05-2.89-.09-5.77-.14-8.65q-.14-8.64-.31-17.29c-.06-3-.14-6-.17-9a16,16,0,0,1,.72-5.75A8.52,8.52,0,0,1,33,293.72c-.35-.89-.59-1.84-.88-2.7-.6-1.78-1.4-3.79-.66-5.65,1.25-3.1,5.74-3.38,8.51-4,2.6-.61,7-2.23,8.23,1.39.61,1.86.38,4.21.52,6.15.09,1.17.28,2.42.35,3.65,1.73,0,3.45-.08,5.18-.1-1.25-3.92-.75-8.81,1.69-11.95,3.49-4.47,9.5-3.67,14.54-3.6,3.26.05,6.52,0,9.79.06,2.22,0,4.46.18,6.28,1.58a8.46,8.46,0,0,1,2.93,5.59c.41,2.73-.32,5.78.78,8.37a2.49,2.49,0,0,1,.22.84l3.55.12c-.39-1.71-.64-3.45-.93-5.19a7.09,7.09,0,0,1,.06-4c1.3-3.05,6.14-1.94,8.7-2,3,0,6.69-.35,8.21,2.89s-.68,6.39-.58,9.65c0,0,0,0,0,.06a6.33,6.33,0,0,1,3.23,3.49c1,2.49.82,5.51,1,8.15C113.86,309.84,114,313.13,114.08,316.43Zm-4.32,18.45c.18-7.39,0-14.8-.15-22.19-1.3,0-2.63-.1-3.9-.13l-5.7-.15c-2.06-.06-4.11-.14-6.17-.28-1.32-.09-2.61-.32-3.91-.53a20.51,20.51,0,0,1,1.77,13,22.3,22.3,0,0,1-5.4,10.74,45.21,45.21,0,0,1,5-.4c2.5,0,5,0,7.49,0,2.65,0,5.3,0,8,0C107.73,334.93,108.77,334.82,109.76,334.88Zm-.12,3.58c-1.11,0-2.28-.12-3.39-.13-2.5,0-5-.09-7.49-.16-2.65-.06-5.31-.09-8-.2-2.19-.09-4.28-.47-6.42-.77a21.41,21.41,0,0,1-16.87,5.41,19.19,19.19,0,0,1-12-6.53l-.69-.81a45.71,45.71,0,0,1-5.49,0l-6.51,0c-3.91,0-7.86,0-11.77-.29,0,2.55-.06,5.12.07,7.67.1,2.07.76,3.46,2.81,4.11a21.6,21.6,0,0,0,5.78.54l7.63.25,14.79.47,30,1c3.83.12,7.93.57,11.67-.49,4.47-1.27,5.59-5,5.78-9.28C109.63,339,109.63,338.72,109.64,338.46Zm-.11-28.91c0-2.41-.1-4.84-.24-7.25s-.61-3.91-3.08-4.46c-4.51-1-9.58-.7-14.2-1l-3.92-.23h-.23c-5.71-.18-11.44-.27-17.16-.23-11.12.07-22.3.46-33.37,1.55-1.7.17-4.14.26-5.34,1.69s-1,3.69-1.06,5.43c0,1.38,0,2.75,0,4.13,8.34-.27,16.71-.44,25.05-.2a24.32,24.32,0,0,1,6.1-5.06,21.54,21.54,0,0,1,16.75-1.75,18.09,18.09,0,0,1,7.54,4.44,19.13,19.13,0,0,1,2.61,3.3c1.77-.15,3.53-.44,5.33-.48s3.79,0,5.69,0l6.17.09C107.28,309.54,108.42,309.48,109.53,309.55Zm-2-21.23c.27-3.53-3.2-3.14-5.74-3.16a35.58,35.58,0,0,0-4,0c-.54.05-1.66,0-2,.59-.18.33.11,1.27.15,1.62.24,2,.52,4.09.61,6.14l4.33.15a44.81,44.81,0,0,1,5.37.32C106.59,292.05,107.44,290.27,107.58,288.32ZM71,339.12c9.61-.72,17.23-9.55,17-19.06S78.6,304,69.43,305.39a20.07,20.07,0,0,0-12.76,7.7A19.08,19.08,0,0,0,55,315.8a18.08,18.08,0,0,0-1.37,5.65A16.21,16.21,0,0,0,71,339.12Zm12.84-46,2.21.07a20.89,20.89,0,0,1-.41-5.19c0-1.82.21-3.88-.76-5.51-1.13-1.92-3.58-1.67-5.51-1.71-2.34-.05-4.67-.1-7-.12-3.83,0-10.45-1.32-13.25,2-2.4,2.83-1.62,6.4-1.61,9.79,4.59,0,9.16.06,13.72.17Q77.5,292.75,83.79,293.09ZM54.4,311c-7.82.12-15.65-.09-23.46-.4,0,3.11,0,6.21,0,9.32,0,4.32.05,8.66.07,13,3.91-.31,7.86-.3,11.78-.32l6.51,0c1.11,0,2.25-.07,3.38-.07a13.67,13.67,0,0,1-2.52-6.76A22.6,22.6,0,0,1,54.4,311Zm-9-18.41c-.13-1.86,0-3.84,0-5.57,0-1.29.31-3.24-1.23-3.39-1.12-.11-2.66.65-3.76.93a38.55,38.55,0,0,0-3.87,1c-1.62.59-1.49,1.6-1.13,3.15.31,1.35.83,2.88,1,4.37l.2,0C39.56,292.89,42.5,292.74,45.43,292.63Z"/><path class="cls-11" d="M109.61,312.69c.18,7.39.33,14.8.15,22.19-1-.06-2,.05-3,0-2.66,0-5.31,0-8,0-2.49,0-5,0-7.49,0a45.21,45.21,0,0,0-5,.4,22.3,22.3,0,0,0,5.4-10.74,20.51,20.51,0,0,0-1.77-13c1.3.21,2.59.44,3.91.53,2.06.14,4.11.22,6.17.28l5.7.15C107,312.59,108.31,312.73,109.61,312.69Z"/><path class="cls-1" d="M106.25,338.33c1.11,0,2.28.17,3.39.13,0,.26,0,.51,0,.77-.19,4.24-1.31,8-5.78,9.28-3.74,1.06-7.84.61-11.67.49l-30-1-14.79-.47-7.63-.25a21.6,21.6,0,0,1-5.78-.54c-2.05-.65-2.71-2-2.81-4.11-.13-2.55-.05-5.12-.07-7.67,3.91.3,7.86.27,11.77.29l6.51,0a45.71,45.71,0,0,0,5.49,0l.69.81a19.19,19.19,0,0,0,12,6.53,21.41,21.41,0,0,0,16.87-5.41c2.14.3,4.23.68,6.42.77,2.65.11,5.31.14,8,.2C101.26,338.24,103.75,338.31,106.25,338.33Z"/><path class="cls-1" d="M109.29,302.3c.14,2.41.19,4.84.24,7.25-1.11-.07-2.25,0-3.35,0l-6.17-.09c-1.9,0-3.79,0-5.69,0s-3.56.33-5.33.48a19.13,19.13,0,0,0-2.61-3.3,18.09,18.09,0,0,0-7.54-4.44,21.54,21.54,0,0,0-16.75,1.75A24.32,24.32,0,0,0,56,309c-8.34-.24-16.71-.07-25,.2,0-1.38,0-2.75,0-4.13,0-1.74-.13-4,1.06-5.43s3.64-1.52,5.34-1.69c11.07-1.09,22.25-1.48,33.37-1.55,5.72,0,11.45.05,17.16.23h.23l3.92.23c4.62.28,9.69,0,14.2,1C108.68,298.39,109.15,300,109.29,302.3Z"/><path class="cls-17" d="M101.84,285.16c2.54,0,6-.37,5.74,3.16-.14,1.95-1,3.73-1.25,5.67a44.81,44.81,0,0,0-5.37-.32l-4.33-.15c-.09-2-.37-4.1-.61-6.14,0-.35-.33-1.29-.15-1.62.31-.6,1.43-.54,2-.59A35.58,35.58,0,0,1,101.84,285.16Z"/><path class="cls-17" d="M88,320.06c.23,9.51-7.39,18.34-17,19.06A16.21,16.21,0,0,1,53.6,321.45,18.08,18.08,0,0,1,55,315.8a19.08,19.08,0,0,1,1.7-2.71,20.07,20.07,0,0,1,12.76-7.7C78.6,304,87.72,310.55,88,320.06ZM84,323.61a12.65,12.65,0,0,0-3.34-11.23A11.28,11.28,0,0,0,76,309.59a13.5,13.5,0,0,0-10.5,1.1A14.91,14.91,0,0,0,58,324.36c.21,2.66,1.65,4.49,3.34,6.47a12,12,0,0,0,7.52,4.08C75.94,335.86,82.69,330.52,84,323.61Z"/><path class="cls-1" d="M86,293.16l-2.21-.07q-6.3-.34-12.61-.51c-4.56-.11-9.13-.18-13.72-.17,0-3.39-.79-7,1.61-9.79,2.8-3.31,9.42-2,13.25-2,2.33,0,4.66.07,7,.12,1.93,0,4.38-.21,5.51,1.71,1,1.63.79,3.69.76,5.51A20.89,20.89,0,0,0,86,293.16ZM80.26,289a2.05,2.05,0,0,0,0-3.92c-2.89-1.12-6.31-.78-9.35-.7-2.86.09-6.09.06-8.68,1.38a1.59,1.59,0,0,0,0,2.73c2.61,1.29,5.82,1.24,8.68,1.29C74,289.81,77.38,290.13,80.26,289Z"/><path class="cls-6" d="M80.67,312.38A12.65,12.65,0,0,1,84,323.61c-1.32,6.91-8.07,12.25-15.16,11.3a12,12,0,0,1-7.52-4.08c-1.69-2-3.13-3.81-3.34-6.47a14.91,14.91,0,0,1,7.46-13.67,13.5,13.5,0,0,1,10.5-1.1A11.28,11.28,0,0,1,80.67,312.38ZM71,332.73a11.87,11.87,0,0,0,10.64-11.94c-.14-6-5.85-10.09-11.6-9.19a12.52,12.52,0,0,0-8,4.82,11.46,11.46,0,0,0-1.07,1.7,11.21,11.21,0,0,0-.86,3.54A10.16,10.16,0,0,0,71,332.73Z"/><path class="cls-4" d="M81.65,320.79A11.87,11.87,0,0,1,71,332.73a10.16,10.16,0,0,1-10.88-11.07,11.21,11.21,0,0,1,.86-3.54,11.46,11.46,0,0,1,1.07-1.7,12.52,12.52,0,0,1,8-4.82C75.8,310.7,81.51,314.83,81.65,320.79Z"/><path class="cls-18" d="M80.26,285.06a2.05,2.05,0,0,1,0,3.92c-2.88,1.15-6.3.83-9.35.78-2.86-.05-6.07,0-8.68-1.29a1.59,1.59,0,0,1,0-2.73c2.59-1.32,5.82-1.29,8.68-1.38C74,284.28,77.37,283.94,80.26,285.06Z"/><path class="cls-11" d="M30.94,310.64c7.81.31,15.64.52,23.46.4a22.6,22.6,0,0,0-4.21,14.72,13.67,13.67,0,0,0,2.52,6.76c-1.13,0-2.27.07-3.38.07l-6.51,0c-3.92,0-7.87,0-11.78.32,0-4.33-.05-8.67-.07-13C31,316.85,31,313.75,30.94,310.64Z"/><path class="cls-17" d="M45.4,287.06c.06,1.73-.1,3.71,0,5.57-2.93.11-5.87.26-8.8.48l-.2,0c-.19-1.49-.71-3-1-4.37-.36-1.55-.49-2.56,1.13-3.15a38.55,38.55,0,0,1,3.87-1c1.1-.28,2.64-1,3.76-.93C45.71,283.82,45.36,285.77,45.4,287.06Z"/><path class="cls-1" d="M321.5,72.71c1.86,1,4,2.21,4.72,4.37.56,1.81,0,3.79-.73,5.49C290,63.52,254.74,43.89,219.28,24.7c-9.6-5.19-19.18-10.42-28.84-15.49l.06-.15c.86-2,2.37-4.36,4.88-4a11.62,11.62,0,0,1,3.93,1.56,14.16,14.16,0,0,0-1.21,2.87c-.15.47.48,1,.87.6a14.8,14.8,0,0,0,1.91-2.54c.55.33,1.09.66,1.61.94l2.6,1.4-.21.46c-.36.82-.74,1.64-1.13,2.45s.84,1.31,1.25.63c.49-.83,1.21-1.72,1.73-2.65l4.54,2.45c-.5.83-.9,1.73-1.36,2.58s.81,1.83,1.36.91,1.12-1.72,1.6-2.63l4.76,2.57c-.69,1-1.23,2.24-1.8,3.18a.79.79,0,0,0,1.31.89c.65-1,1.62-2,2.27-3.11l4.11,2.22c-.37.76-.69,1.56-1.06,2.28s.72,1.62,1.19.81,1-1.47,1.47-2.23L229.41,23c-.06.15-.12.3-.17.45a21.11,21.11,0,0,1-1,2.46c-.32.64.79,1.2,1.12.57a20.34,20.34,0,0,1,1.43-2.25l.24-.36.88.48,4,2.16c-.28.6-.55,1.2-.84,1.75s.62,1.42,1,.71c.33-.56.75-1.14,1.14-1.73l4.92,2.65c-.47.71-.83,1.51-1.22,2.24-.57,1,.94,2.09,1.54,1,.44-.78,1-1.55,1.34-2.38l4,2.16c-.51.91-.92,1.92-1.39,2.76-.58,1,.94,2.09,1.54,1.05S249.23,35,249.76,34l4.49,2.42c-.46.81-.84,1.66-1.35,2.44s.69,1.59,1.2.81,1.19-1.57,1.76-2.38l5.8,3.13c-.46.91-.81,1.89-1.21,2.83s1.16,1.54,1.62.56.84-1.67,1.18-2.53L268.36,44c-.54.95-.87,2-1.39,3-.4.76.69,1.53,1.13.76.58-1,1.36-1.9,1.89-2.9l5.25,2.83c-.48.92-.84,1.93-1.23,2.84a.92.92,0,0,0,1.62.82c.52-.84,1.12-1.69,1.59-2.59l6,3.25c-.47.83-.85,1.72-1.31,2.54s.83,1.84,1.35.92,1.09-1.7,1.58-2.58l5.8,3.12c-.69.93-1.17,2.11-1.76,3s.91,2.1,1.59,1.07,1.59-1.93,2.15-3l5.55,3c-.51,1-.87,2.07-1.28,3s1.24,1.87,1.74.87,1-1.87,1.48-2.86L305.48,64c-.43.79-.7,1.68-1.14,2.48s.75,1.71,1.25.85,1.17-1.55,1.66-2.37l5.28,2.84c-.47.7-.9,1.43-1.36,2.11a.87.87,0,0,0,1.44,1c.54-.71,1.15-1.39,1.69-2.12l5.48,3a28.71,28.71,0,0,0-2.09,3,1,1,0,0,0,1.64,1.11A26.24,26.24,0,0,0,321.5,72.71Z"/><path class="cls-6" d="M320.93,67.71c4.13,2.23,8.94,4.51,9.57,9.73.48,4-1.45,7.79-3.41,11.09-2.5,4.19-5.57,8.82-10.39,10.51-4.26,1.48-8.49,0-12.25-2.06-5.06-2.83-9.85-6.22-14.73-9.33q-15.48-9.84-31-19.63l-10.26-6.48C226,48.7,204.15,34.64,182,21.16a2,2,0,0,1-.19-3.21c2.68-1.95,3.19-5.22,4.1-8.2a15.17,15.17,0,0,1,3.54-6.53c4.33-4.28,9.3-1.38,13.72,1L239.78,24,304.22,58.7Zm5.29,9.37c-.68-2.16-2.86-3.35-4.72-4.37a26.24,26.24,0,0,1-2.17,3.14,1,1,0,0,1-1.64-1.11,28.71,28.71,0,0,1,2.09-3l-5.48-3c-.54.73-1.15,1.41-1.69,2.12a.87.87,0,0,1-1.44-1c.46-.68.89-1.41,1.36-2.11L307.25,65c-.49.82-1.18,1.57-1.66,2.37s-1.71,0-1.25-.85.71-1.69,1.14-2.48l-5.34-2.86c-.43,1-1,2-1.48,2.86s-2.17.13-1.74-.87.77-2,1.28-3l-5.55-3c-.56,1.08-1.54,2.06-2.15,3s-2.25,0-1.59-1.07,1.07-2.08,1.76-3l-5.8-3.12c-.49.88-1.08,1.71-1.58,2.58s-1.87,0-1.35-.92.84-1.71,1.31-2.54l-6-3.25c-.47.9-1.07,1.75-1.59,2.59a.92.92,0,0,1-1.62-.82c.39-.91.75-1.92,1.23-2.84L270,44.91c-.53,1-1.31,1.89-1.89,2.9-.44.77-1.53,0-1.13-.76.52-1,.85-2.07,1.39-3l-5.11-2.76c-.34.86-.79,1.69-1.18,2.53s-2.05.46-1.62-.56.75-1.92,1.21-2.83l-5.8-3.13c-.57.81-1.24,1.55-1.76,2.38s-1.7,0-1.2-.81.89-1.63,1.35-2.44L249.76,34c-.53,1-1.22,1.87-1.75,2.78s-2.12,0-1.54-1.05c.47-.84.88-1.85,1.39-2.76l-4-2.16c-.38.83-.9,1.6-1.34,2.38-.6,1-2.11,0-1.54-1,.39-.73.75-1.53,1.22-2.24l-4.92-2.65c-.39.59-.81,1.17-1.14,1.73-.43.71-1.43,0-1-.71s.56-1.15.84-1.75l-4-2.16-.88-.48-.24.36a20.34,20.34,0,0,0-1.43,2.25c-.33.63-1.44.07-1.12-.57a21.11,21.11,0,0,0,1-2.46c0-.15.11-.3.17-.45l-4.29-2.32c-.49.76-1.05,1.5-1.47,2.23s-1.62,0-1.19-.81.69-1.52,1.06-2.28l-4.11-2.22c-.65,1.1-1.62,2.15-2.27,3.11a.79.79,0,0,1-1.31-.89c.57-.94,1.11-2.17,1.8-3.18l-4.76-2.57c-.48.91-1.09,1.78-1.6,2.63s-1.84,0-1.36-.91.86-1.75,1.36-2.58l-4.54-2.45c-.52.93-1.24,1.82-1.73,2.65-.41.68-1.61.08-1.25-.63s.77-1.63,1.13-2.45l.21-.46-2.6-1.4c-.52-.28-1.06-.61-1.61-.94A14.8,14.8,0,0,1,199,10.08c-.39.43-1-.13-.87-.6a14.16,14.16,0,0,1,1.21-2.87,11.62,11.62,0,0,0-3.93-1.56c-2.51-.35-4,2-4.88,4l-.06.15c9.66,5.07,19.24,10.3,28.84,15.49C254.74,43.89,290,63.52,325.49,82.57,326.19,80.87,326.78,78.89,326.22,77.08Zm-8.66,16.73a26.58,26.58,0,0,0,7.05-9.31C314.84,79,305,73.64,295.19,68.24,260.13,48.94,224.81,30,190.09,10.11c-1.14,3.13-1.65,6.47-3.66,9,19.83,12.37,39.95,24.35,59.49,37.19l16.13,10q14.64,9.08,29.28,18.11c4.59,2.83,9.14,5.75,13.8,8.46C309.09,95.22,313.5,96.89,317.56,93.81Z"/><path class="cls-6" d="M311.26,81.36a5.32,5.32,0,0,1,5.11,6,.71.71,0,0,1,0,.29c-.77,4.54-6.76,5.81-9.51,2.17A5.35,5.35,0,0,1,311.26,81.36Zm2.28,7.6a3.25,3.25,0,1,0-4.88-.11,3.11,3.11,0,0,0,4.24.68A3.74,3.74,0,0,0,313.54,89Z"/><path class="cls-8" d="M324.61,84.5a26.58,26.58,0,0,1-7.05,9.31c-4.06,3.08-8.47,1.41-12.43-.89-4.66-2.71-9.21-5.63-13.8-8.46q-14.65-9-29.28-18.11l-16.13-10c-19.54-12.84-39.66-24.82-59.49-37.19,2-2.57,2.52-5.91,3.66-9,34.72,19.92,70,38.83,105.1,58.13C305,73.64,314.84,79,324.61,84.5Zm-8.24,2.85a5.3,5.3,0,1,0-9.51,2.46c2.75,3.64,8.74,2.37,9.51-2.17A.71.71,0,0,0,316.37,87.35Z"/></g></svg>