<svg xmlns="http://www.w3.org/2000/svg" viewBox="0 0 375.68 347.75"><defs><style>.cls-1{fill:#fff;}.cls-2{fill:#5fb360;}.cls-3{fill:#b8f9ff;}.cls-4{fill:#2a3958;}.cls-5{fill:#3a5799;}.cls-6{fill:#b7f8fe;}.cls-7{font-size:22.74px;font-family:Montserrat-ExtraBold, Montserrat ExtraBold;font-weight:800;}.cls-16,.cls-7{fill:#19803e;}.cls-8{fill:#98edf5;}.cls-17,.cls-9{fill:#202d45;}.cls-10{fill:#f7622a;}.cls-11{fill:#22a851;}.cls-12{fill:#fcd740;}.cls-13{fill:#3fc9ee;}.cls-14,.cls-18{fill:none;}.cls-14{stroke:#202d45;stroke-linecap:round;stroke-linejoin:round;}.cls-15{fill:#fccb00;}.cls-17{opacity:0.1;}.cls-18{stroke:#22a851;stroke-miterlimit:10;stroke-width:2px;}</style></defs><title>develop</title><g id="BACKGROUND"><rect class="cls-1" width="375.68" height="347.75"/></g><g id="OBJECTS"><ellipse class="cls-2" cx="188.43" cy="315.01" rx="184" ry="5.79"/><ellipse class="cls-2" cx="188.43" cy="341.96" rx="159.31" ry="5.79"/><path class="cls-1" d="M233.4,331.48h-132v10.29H249.88l-3.55-4.25A16.87,16.87,0,0,0,233.4,331.48Z"/><path class="cls-3" d="M110.32,331.48H72.92a2.21,2.21,0,0,0-2.2,2.21v5.88a2.21,2.21,0,0,0,2.2,2.2H126.8l-3.56-4.25A16.83,16.83,0,0,0,110.32,331.48Z"/><path class="cls-4" d="M87.16,327.28h8.51a2,2,0,0,1,2,2v2.15a0,0,0,0,1,0,0H85.11a0,0,0,0,1,0,0v-2.15A2,2,0,0,1,87.16,327.28Z"/><path class="cls-4" d="M105.22,327.28h8.51a2,2,0,0,1,2,2v2.15a0,0,0,0,1,0,0h-12.6a0,0,0,0,1,0,0v-2.15A2,2,0,0,1,105.22,327.28Z"/><path class="cls-4" d="M123.28,327.28h8.51a2,2,0,0,1,2,2v2.15a0,0,0,0,1,0,0h-12.6a0,0,0,0,1,0,0v-2.15A2,2,0,0,1,123.28,327.28Z"/><path class="cls-4" d="M141.35,327.28h8.51a2,2,0,0,1,2,2v2.15a0,0,0,0,1,0,0H139.3a0,0,0,0,1,0,0v-2.15A2,2,0,0,1,141.35,327.28Z"/><path class="cls-4" d="M177.48,327.28H186a2,2,0,0,1,2,2v2.15a0,0,0,0,1,0,0h-12.6a0,0,0,0,1,0,0v-2.15A2,2,0,0,1,177.48,327.28Z"/><path class="cls-4" d="M195.54,327.28h8.51a2,2,0,0,1,2,2v2.15a0,0,0,0,1,0,0H193.5a0,0,0,0,1,0,0v-2.15A2,2,0,0,1,195.54,327.28Z"/><path class="cls-4" d="M213.61,327.28h8.51a2,2,0,0,1,2,2v2.15a0,0,0,0,1,0,0h-12.6a0,0,0,0,1,0,0v-2.15A2,2,0,0,1,213.61,327.28Z"/><path class="cls-5" d="M89.89,327.28h8.51a2,2,0,0,1,2,2v2.15a0,0,0,0,1,0,0H87.84a0,0,0,0,1,0,0v-2.15A2,2,0,0,1,89.89,327.28Z"/><path class="cls-5" d="M108,327.28h8.51a2,2,0,0,1,2,2v2.15a0,0,0,0,1,0,0H105.9a0,0,0,0,1,0,0v-2.15A2,2,0,0,1,108,327.28Z"/><path class="cls-5" d="M126,327.28h8.51a2,2,0,0,1,2,2v2.15a0,0,0,0,1,0,0H124a0,0,0,0,1,0,0v-2.15A2,2,0,0,1,126,327.28Z"/><path class="cls-5" d="M170.65,327.28H144.08a2.05,2.05,0,0,0-2.05,2.05v2.15H172.7v-2.15A2.05,2.05,0,0,0,170.65,327.28Z"/><path class="cls-5" d="M180.21,327.28h8.51a2,2,0,0,1,2,2v2.15a0,0,0,0,1,0,0h-12.6a0,0,0,0,1,0,0v-2.15A2,2,0,0,1,180.21,327.28Z"/><path class="cls-5" d="M198.27,327.28h8.51a2,2,0,0,1,2,2v2.15a0,0,0,0,1,0,0h-12.6a0,0,0,0,1,0,0v-2.15A2,2,0,0,1,198.27,327.28Z"/><path class="cls-5" d="M216.34,327.28h8.51a2,2,0,0,1,2,2v2.15a0,0,0,0,1,0,0h-12.6a0,0,0,0,1,0,0v-2.15A2,2,0,0,1,216.34,327.28Z"/><path class="cls-6" d="M101.71,19.94H81.89A10.87,10.87,0,0,0,71,30.81V44.87a10.86,10.86,0,0,0,7.33,10.27l.34,7.54,9.77-6.94h13.25a10.87,10.87,0,0,0,10.87-10.87V30.81A10.87,10.87,0,0,0,101.71,19.94Z"/><path class="cls-5" d="M125.66,0H99.51A14.34,14.34,0,0,0,85.17,14.34V32.9A14.34,14.34,0,0,0,99.51,47.24H117l12.88,9.15.46-10A14.33,14.33,0,0,0,140,32.9V14.34A14.34,14.34,0,0,0,125.66,0Z"/><text class="cls-7" transform="translate(91.8 31.93)">&lt; / &gt;</text><polygon class="cls-8" points="212.23 306.66 166.94 306.66 173.1 261.37 206.07 261.37 212.23 306.66"/><path class="cls-3" d="M134,315l.82-1.26a15.59,15.59,0,0,1,13.06-7.09h77.89a15.59,15.59,0,0,1,13.36,7.56l.47.79Z"/><path class="cls-3" d="M323.15,79.86V255a6.38,6.38,0,0,1-6.38,6.38h-266A6.38,6.38,0,0,1,44.4,255V79.86c0-.16,0-.32,0-.48a9.21,9.21,0,0,1,8.9-8.9H314.25a9.19,9.19,0,0,1,8.89,8.9C323.15,79.54,323.15,79.7,323.15,79.86Z"/><path class="cls-9" d="M44.41,79.86V225.71H323.16V79.86a9.4,9.4,0,0,0-9.39-9.39h-260A9.39,9.39,0,0,0,44.41,79.86Z"/><path class="cls-1" d="M332.46,79.57V255a6.38,6.38,0,0,1-6.39,6.38h-266A6.38,6.38,0,0,1,53.71,255V79.57c0-.12,0-.24,0-.36a9.21,9.21,0,0,1,8.72-8.73H323.72a9.21,9.21,0,0,1,8.73,8.73C332.46,79.33,332.46,79.45,332.46,79.57Z"/><path class="cls-3" d="M202.2,248.29a8.14,8.14,0,1,0-11.36,1.86A8.14,8.14,0,0,0,202.2,248.29Z"/><path class="cls-1" d="M143.07,315l.82-1.26A15.59,15.59,0,0,1,157,306.66h77.89a15.56,15.56,0,0,1,13.35,7.56l.48.79Z"/><path class="cls-4" d="M53.71,79.57V225.71H332.46V79.57a9.1,9.1,0,0,0-9.1-9.1H62.8A9.1,9.1,0,0,0,53.71,79.57Z"/><rect class="cls-5" x="62.89" y="79.86" width="262.27" height="137.71" rx="4.97"/><polygon class="cls-3" points="218.23 306.66 172.94 306.66 179.1 261.37 212.07 261.37 218.23 306.66"/><path class="cls-1" d="M67.36,79.86H320.69a4.47,4.47,0,0,1,4.47,4.47v16.74a0,0,0,0,1,0,0H62.89a0,0,0,0,1,0,0V84.33A4.47,4.47,0,0,1,67.36,79.86Z"/><path class="cls-10" d="M289.23,90.47a3,3,0,1,0-3,3A3,3,0,0,0,289.23,90.47Z"/><path class="cls-11" d="M300.69,90.47a3,3,0,1,0-3,3A3,3,0,0,0,300.69,90.47Z"/><path class="cls-12" d="M312.16,90.47a3,3,0,1,0-3,3A3,3,0,0,0,312.16,90.47Z"/><rect class="cls-10" x="80.91" y="116.45" width="14.57" height="5.33"/><rect class="cls-12" x="103.53" y="116.45" width="26.28" height="5.33"/><rect class="cls-1" x="90.92" y="127.79" width="54.59" height="5.33"/><rect class="cls-13" x="153.56" y="127.79" width="14.57" height="5.33"/><rect class="cls-1" x="90.92" y="139.12" width="54.59" height="5.33"/><rect class="cls-13" x="153.56" y="139.12" width="14.57" height="5.33"/><rect class="cls-1" x="90.92" y="150.45" width="54.59" height="5.33"/><rect class="cls-13" x="153.56" y="150.45" width="14.57" height="5.33"/><rect class="cls-10" x="80.91" y="161.79" width="14.57" height="5.33"/><rect class="cls-12" x="103.53" y="161.79" width="26.28" height="5.33"/><rect class="cls-13" x="90.92" y="173.12" width="27.3" height="5.33"/><rect class="cls-1" x="126.26" y="173.12" width="41.87" height="5.33"/><rect class="cls-13" x="90.92" y="184.45" width="27.3" height="5.33"/><rect class="cls-1" x="126.26" y="184.45" width="41.87" height="5.33"/><rect class="cls-13" x="90.92" y="195.79" width="27.3" height="5.33"/><rect class="cls-1" x="126.26" y="195.79" width="41.87" height="5.33"/><rect class="cls-12" x="218.04" y="116.45" width="14.57" height="5.33"/><rect class="cls-11" x="240.66" y="116.45" width="26.28" height="5.33"/><rect class="cls-1" x="228.05" y="127.79" width="12.61" height="5.33"/><rect class="cls-13" x="248.71" y="127.79" width="56.55" height="5.33"/><rect class="cls-1" x="228.05" y="139.12" width="12.61" height="5.33"/><rect class="cls-10" x="248.71" y="139.12" width="56.55" height="5.33"/><rect class="cls-1" x="228.05" y="150.45" width="12.61" height="5.33"/><rect class="cls-13" x="248.71" y="150.45" width="56.55" height="5.33"/><rect class="cls-12" x="218.04" y="161.79" width="14.57" height="5.33"/><rect class="cls-11" x="240.66" y="161.79" width="26.28" height="5.33"/><rect class="cls-13" x="228.05" y="173.12" width="44.91" height="5.33"/><rect class="cls-1" x="281.01" y="173.12" width="24.25" height="5.33"/><rect class="cls-11" x="228.05" y="184.45" width="44.91" height="5.33"/><rect class="cls-1" x="281.01" y="184.45" width="24.25" height="5.33"/><rect class="cls-13" x="228.05" y="195.79" width="44.91" height="5.33"/><rect class="cls-1" x="281.01" y="195.79" width="24.25" height="5.33"/><line class="cls-14" x1="193.08" y1="113.45" x2="193.08" y2="209.74"/><rect class="cls-9" x="25.87" y="236.7" width="58.71" height="69.49" rx="3.69"/><rect class="cls-10" x="38.72" y="245.74" width="5.51" height="2.27"/><rect class="cls-12" x="47.28" y="245.74" width="9.95" height="2.27"/><rect class="cls-1" x="42.51" y="250.57" width="20.66" height="2.27"/><rect class="cls-13" x="66.21" y="250.57" width="5.51" height="2.27"/><rect class="cls-1" x="42.51" y="255.4" width="20.66" height="2.27"/><rect class="cls-13" x="66.21" y="255.4" width="5.51" height="2.27"/><rect class="cls-1" x="42.51" y="260.23" width="20.66" height="2.27"/><rect class="cls-13" x="66.21" y="260.23" width="5.51" height="2.27"/><rect class="cls-10" x="38.72" y="265.06" width="5.51" height="2.27"/><rect class="cls-12" x="47.28" y="265.06" width="9.95" height="2.27"/><rect class="cls-13" x="42.51" y="269.88" width="10.33" height="2.27"/><rect class="cls-1" x="55.88" y="269.88" width="15.84" height="2.27"/><rect class="cls-13" x="42.51" y="274.71" width="10.33" height="2.27"/><rect class="cls-1" x="55.88" y="274.71" width="15.84" height="2.27"/><rect class="cls-13" x="42.51" y="279.54" width="10.33" height="2.27"/><rect class="cls-1" x="55.88" y="279.54" width="15.84" height="2.27"/><polygon class="cls-15" points="88.76 315.01 21.68 315.01 21.68 268.18 55.22 296.38 88.76 268.18 88.76 315.01"/><polygon class="cls-12" points="21.68 315.01 55.22 276.03 88.76 315.01 21.68 315.01"/><path class="cls-1" d="M298.24,331.69c-20.81,0-16.42,2-18.59,10.08h43.13a1.25,1.25,0,0,0,1.1-1.88C321.13,335.53,309.36,331.69,298.24,331.69Z"/><path class="cls-3" d="M286.26,332.59c-6.64,0-9.18,3.39-9.59,7.82a1.27,1.27,0,0,0,1.27,1.36h25.13C303.07,336.7,293.57,332.59,286.26,332.59Z"/><path class="cls-4" d="M296.6,331.84a17.85,17.85,0,0,0-4.4-.91c-.64-.06-.64.94,0,1a17.25,17.25,0,0,1,4.14.87C297,333,297.21,332,296.6,331.84Z"/><path class="cls-12" d="M354,160.18V151.4l-5.32-.91a17.08,17.08,0,0,0-1-2.45l3.13-4.41-6.21-6.21-4.41,3.13a16,16,0,0,0-2.45-1l-.9-5.33h-8.78l-.91,5.33a16.84,16.84,0,0,0-2.45,1l-4.41-3.13-6.2,6.21,3.12,4.41a16,16,0,0,0-1,2.45l-5.33.91v8.78l5.33.9a16,16,0,0,0,1,2.45l-3.12,4.41,6.2,6.21,4.41-3.13a18.08,18.08,0,0,0,2.45,1l.91,5.32h8.78l.9-5.32a17.08,17.08,0,0,0,2.45-1l4.41,3.13,6.21-6.21-3.13-4.41a17.08,17.08,0,0,0,1-2.45Zm-21.57,8.57a13,13,0,1,1,13-13A13,13,0,0,1,332.46,168.75Z"/><path class="cls-12" d="M359.7,128.71v-4.47l-2.71-.46a8,8,0,0,0-.52-1.25l1.6-2.24-3.16-3.16-2.25,1.59a9.14,9.14,0,0,0-1.25-.52l-.46-2.71h-4.47L346,118.2a9.14,9.14,0,0,0-1.25.52l-2.24-1.59-3.17,3.16,1.6,2.24a8,8,0,0,0-.52,1.25l-2.71.46v4.47l2.71.46a7.65,7.65,0,0,0,.52,1.25l-1.6,2.25,3.17,3.16,2.24-1.59a9.1,9.1,0,0,0,1.25.51l.46,2.72H351l.46-2.72a9.1,9.1,0,0,0,1.25-.51l2.25,1.59,3.16-3.16-1.6-2.25a7.65,7.65,0,0,0,.52-1.25Zm-11,4.37a6.6,6.6,0,1,1,6.6-6.6A6.6,6.6,0,0,1,348.72,133.08Z"/><path class="cls-11" d="M328.38,146.73l4.93,4.93a3.37,3.37,0,0,1,0,4.77h0a3.37,3.37,0,0,1-4.76,0l-5-5a10,10,0,0,0,12.35,13.82L349,178.32a4.38,4.38,0,0,0,6.06.21,4.26,4.26,0,0,0,.09-6.11l-13.21-13.21a10,10,0,0,0-13.53-12.48Z"/><path class="cls-16" d="M350.89,174.21h0a1.48,1.48,0,0,1-2.1,0l-8.42-8.42a1.48,1.48,0,0,1,0-2.1h0a1.48,1.48,0,0,1,2.1,0l8.42,8.42A1.48,1.48,0,0,1,350.89,174.21Z"/><path class="cls-17" d="M298,225.71l-1.49-8.14-1.64-9h-7l1.64,9,1.21,6.6H267.92l-1.2-6.6-1.64-9h-7l1.64,9,1.21,6.6.28,1.54,1,5.42,2.88,15.8,1.28,7,1.36,7.48h7l-1.36-7.48h22.81l1.37,7.48h7Zm-25.9,21.22-2.88-15.8H292l2.88,15.8Z"/><polygon class="cls-12" points="312.68 315.01 319.64 315.01 300.21 208.57 293.25 208.57 312.68 315.01"/><polygon class="cls-12" points="282.9 315.01 289.87 315.01 270.44 208.57 263.47 208.57 282.9 315.01"/><polygon class="cls-12" points="316.67 299.41 315.4 292.45 278.78 292.45 280.06 299.41 316.67 299.41"/><polygon class="cls-12" points="312.52 276.65 311.25 269.69 274.63 269.69 275.9 276.65 312.52 276.65"/><polygon class="cls-12" points="308.36 253.89 307.09 246.93 270.47 246.93 271.74 253.89 308.36 253.89"/><polygon class="cls-12" points="304.21 231.13 302.94 224.17 266.32 224.17 267.59 231.13 304.21 231.13"/><rect class="cls-5" x="327.42" y="278.59" width="36.41" height="36.41" rx="9.08"/><path class="cls-1" d="M354.45,294.85a1.92,1.92,0,0,0,1.92-1.92v-.07a1.92,1.92,0,0,0-1.92-1.92h-1.9l.48-2.62a1.92,1.92,0,0,0-3.78-.68l-.6,3.3h-3.91l.48-2.62a1.92,1.92,0,0,0-3.78-.68l-.61,3.3h-4a1.92,1.92,0,0,0-1.92,1.92v.07a1.92,1.92,0,0,0,1.92,1.92h3.31l-.71,3.9h-2.6a1.92,1.92,0,0,0-1.92,1.92v.07a1.92,1.92,0,0,0,1.92,1.92h1.89l-.47,2.61A1.92,1.92,0,1,0,342,306l.6-3.3h3.91l-.48,2.61a1.92,1.92,0,1,0,3.78.69l.6-3.3h4a1.92,1.92,0,0,0,1.92-1.92v-.07a1.92,1.92,0,0,0-1.92-1.92h-3.32l.71-3.9Zm-7.22,3.9h-3.91l.71-3.9h3.91Z"/><path class="cls-18" d="M328.84,239.41h7.69a8.23,8.23,0,0,1,8.24,8.24v19.24"/><path class="cls-18" d="M328.84,239.41a3.84,3.84,0,1,0-3.83,3.83A3.84,3.84,0,0,0,328.84,239.41Z"/><path class="cls-18" d="M348.6,271a3.83,3.83,0,1,0-3.83,3.84A3.83,3.83,0,0,0,348.6,271Z"/><path class="cls-18" d="M126.54,253.79V295.5a8.24,8.24,0,0,1-8.24,8.24H104.06"/><path class="cls-18" d="M126.54,253.79a3.84,3.84,0,1,0-3.83-3.84A3.83,3.83,0,0,0,126.54,253.79Z"/><path class="cls-18" d="M99.93,307.57a3.84,3.84,0,1,0-3.83-3.83A3.84,3.84,0,0,0,99.93,307.57Z"/><path class="cls-18" d="M154.89,22h19.7a8.24,8.24,0,0,1,8.24,8.24V86.51"/><path class="cls-18" d="M154.89,22a3.83,3.83,0,1,0-3.83,3.84A3.82,3.82,0,0,0,154.89,22Z"/><path class="cls-18" d="M186.66,90.63a3.83,3.83,0,1,0-3.83,3.84A3.83,3.83,0,0,0,186.66,90.63Z"/></g></svg>